<svg width="256" height="256" viewBox="0 0 256 256" fill="none" xmlns="http://www.w3.org/2000/svg">
<circle cx="126.5" cy="139.5" r="90.5" fill="#BCA8F4"/>
<circle cx="29" cy="182" r="5" fill="#8062D6"/>
<circle cx="22" cy="160" r="5" fill="#8062D6"/>
<circle cx="23" cy="116" r="5" fill="#8062D6"/>
<circle cx="30" cy="94" r="5" fill="#8062D6"/>
<circle cx="44" cy="72" r="5" fill="#8062D6"/>
<circle cx="62" cy="54" r="5" fill="#8062D6"/>
<circle cx="82" cy="42" r="5" fill="#8062D6"/>
<circle cx="104" cy="36" r="5" fill="#8062D6"/>
<circle cx="20" cy="138" r="5" fill="#8062D6"/>
<circle cx="227" cy="182" r="5" fill="#D9D9D9"/>
<circle cx="233" cy="160" r="5" fill="#D9D9D9"/>
<circle cx="232" cy="116" r="5" fill="#D9D9D9"/>
<circle cx="225" cy="94" r="5" fill="#D9D9D9"/>
<circle cx="212" cy="72" r="5" fill="#D9D9D9"/>
<circle cx="195" cy="57" r="5" fill="#D9D9D9"/>
<circle cx="177" cy="45" r="5" fill="#D9D9D9"/>
<circle cx="153" cy="36" r="5" fill="#D9D9D9"/>
<circle cx="128" cy="32" r="5" fill="#8062D6"/>
<circle cx="236" cy="138" r="5" fill="#D9D9D9"/>
<circle cx="127.5" cy="140.5" r="79.5" fill="#8062D6"/>
<circle cx="101" cy="97" r="14" fill="white"/>
</svg>
